<svg aria-hidden="true" style="position: absolute; width: 0; height: 0; overflow: hidden;" version="1.1" xmlns="http://www.w3.org/2000/svg" xmlns:xlink="http://www.w3.org/1999/xlink">
<defs>
<symbol id="icon-brush" viewBox="0 0 32 32">
<path d="M25.333 0h-18.667c-3.68 0.005-6.662 2.987-6.667 6.666v6.667c0.007 5.152 4.181 9.327 9.333 9.333h2.667v5.333c0 2.209 1.791 4 4 4s4-1.791 4-4v0-5.333h2.667c5.152-0.007 9.326-4.181 9.333-9.333v-6.667c-0.005-3.68-2.987-6.662-6.666-6.667h-0zM2.667 6.667c0-2.209 1.791-4 4-4v0h6.667v1.333c0 0.736 0.597 1.333 1.333 1.333s1.333-0.597 1.333-1.333v0-1.333h2.667v4c0 0.736 0.597 1.333 1.333 1.333s1.333-0.597 1.333-1.333v0-4h2.667v6.667c0 0.736 0.597 1.333 1.333 1.333s1.333-0.597 1.333-1.333v0-6.421c1.562 0.564 2.659 2.030 2.667 3.754v6.668h-26.667v-6.667zM22.667 20h-4c-0.736 0-1.333 0.597-1.333 1.333v0 6.667c0 0.736-0.597 1.333-1.333 1.333s-1.333-0.597-1.333-1.333v0-6.667c0-0.736-0.597-1.333-1.333-1.333v0h-4c-2.714-0.004-5.047-1.628-6.084-3.958l-0.017-0.042h25.536c-1.054 2.372-3.387 3.996-6.101 4h-0z"></path>
</symbol>
<symbol id="icon-browser" viewBox="0 0 37 32">
<path d="M28.848 0h-20.363c-4.015 0.005-7.269 3.258-7.273 7.273v17.454c0.005 4.015 3.258 7.269 7.273 7.273h20.363c4.015-0.005 7.268-3.257 7.273-7.271v-17.455c-0.005-4.015-3.258-7.269-7.273-7.273h-0zM8.485 2.909h20.363c2.41 0 4.364 1.954 4.364 4.364v0 1.453h-29.091v-1.453c0-2.41 1.954-4.364 4.364-4.364v0zM28.848 29.091h-20.363c-2.41 0-4.364-1.954-4.364-4.364v0-13.089h29.091v13.092c0 2.409-1.953 4.363-4.363 4.363-0 0-0.001 0-0.001 0h0zM28.848 17.455c-0.001 0.802-0.651 1.453-1.453 1.453h-17.455c-0.803 0-1.454-0.651-1.454-1.454s0.651-1.454 1.454-1.454v0h17.453c0 0 0.001 0 0.001 0 0.803 0 1.453 0.651 1.453 1.453v0zM23.031 23.273c0 0.803-0.651 1.453-1.453 1.453-0 0-0.001 0-0.001 0h-11.636c-0.803 0-1.454-0.651-1.454-1.454s0.651-1.454 1.454-1.454v0h11.636c0.802 0.001 1.453 0.651 1.453 1.453v0zM5.576 5.819c0-0.803 0.651-1.455 1.455-1.455s1.455 0.651 1.455 1.455v0c0 0.803-0.651 1.455-1.455 1.455s-1.455-0.651-1.455-1.455v0zM9.94 5.819c0-0.803 0.651-1.454 1.454-1.454s1.454 0.651 1.454 1.454v0c0 0.803-0.651 1.454-1.454 1.454s-1.454-0.651-1.454-1.454v0zM14.303 5.819c0-0.804 0.652-1.455 1.455-1.455s1.455 0.652 1.455 1.455v0c0 0.804-0.652 1.455-1.455 1.455s-1.455-0.652-1.455-1.455v0z"></path>
</symbol>
<symbol id="icon-edit" viewBox="0 0 32 32">
<path d="M24.875 1.24l-16.256 16.256c-1.206 1.2-1.952 2.86-1.952 4.695 0 0.006 0 0.013 0 0.019v-0.001 1.791c0 0.736 0.597 1.333 1.333 1.333v0h1.791c0.006 0 0.012 0 0.019 0 1.835 0 3.495-0.746 4.694-1.952l16.256-16.256c0.752-0.754 1.217-1.794 1.217-2.943s-0.465-2.189-1.217-2.943l0 0c-0.763-0.731-1.8-1.18-2.943-1.18s-2.179 0.45-2.944 1.182l0.002-0.002zM28.875 5.24l-16.256 16.256c-0.725 0.721-1.724 1.168-2.827 1.171h-0.458v-0.457c0.003-1.104 0.45-2.103 1.171-2.828l16.256-16.256c0.274-0.262 0.647-0.424 1.057-0.424s0.783 0.162 1.058 0.424l-0.001-0.001c0.27 0.271 0.437 0.645 0.437 1.057s-0.167 0.787-0.437 1.057l0-0z"></path>
<path d="M30.667 11.972c-0.736 0-1.333 0.597-1.333 1.333v0 6.695h-5.333c-2.209 0-4 1.791-4 4v0 5.333h-13.333c-2.209 0-4-1.791-4-4v0-18.667c0-2.209 1.791-4 4-4v0h12.056c0.736 0 1.333-0.597 1.333-1.333s-0.597-1.333-1.333-1.333v0h-12.056c-3.68 0.005-6.662 2.987-6.667 6.666v18.667c0.005 3.68 2.987 6.662 6.666 6.667h15.124c0.006 0 0.013 0 0.019 0 1.835 0 3.496-0.746 4.695-1.952l3.542-3.544c1.207-1.2 1.953-2.862 1.953-4.698 0-0.006 0-0.011-0-0.017v0.001-8.485c0-0.736-0.597-1.333-1.333-1.333v0zM24.62 28.163c-0.536 0.535-1.213 0.905-1.953 1.067v-5.229c0-0.736 0.597-1.333 1.333-1.333v0h5.233c-0.175 0.768-0.55 1.43-1.067 1.952l-3.546 3.544z"></path>
</symbol>
<symbol id="icon-fingerprint" viewBox="0 0 32 32">
<path d="M8.62 29.713c-0.736-0-1.333-0.597-1.333-1.333 0-0.483 0.256-0.905 0.64-1.139l0.006-0.003c4.724-2.837 4.724-8.931 4.724-12.571 0-2.209 1.791-4 4-4s4 1.791 4 4v0c0 0.736-0.597 1.333-1.333 1.333s-1.333-0.597-1.333-1.333v0c0-0.736-0.597-1.333-1.333-1.333s-1.333 0.597-1.333 1.333v0c0 3.929 0 11.245-6.019 14.857-0.196 0.119-0.432 0.189-0.685 0.189-0 0-0 0-0 0v0zM15.237 31.608c3.043-3.067 4.82-7.379 5.281-12.827 0.003-0.035 0.005-0.077 0.005-0.119 0-0.696-0.532-1.267-1.212-1.329l-0.005-0c-0.041-0.004-0.087-0.007-0.135-0.007-0.693 0-1.26 0.537-1.307 1.218l-0 0.004c-0.413 4.876-1.892 8.533-4.517 11.175-0.239 0.241-0.387 0.573-0.387 0.94 0 0.737 0.597 1.334 1.334 1.334 0.37 0 0.705-0.151 0.947-0.394l0-0v0.005zM22.171 31.36c0.743-1.21 1.421-2.609 1.958-4.075l0.053-0.165c0.041-0.123 0.065-0.264 0.065-0.41 0-0.736-0.597-1.333-1.333-1.333-0.558 0-1.036 0.343-1.235 0.829l-0.003 0.009c-0.471 1.309-1.068 2.569-1.785 3.761-0.122 0.197-0.195 0.437-0.195 0.693 0 0.481 0.256 0.903 0.638 1.137l0.006 0.003c0.197 0.121 0.436 0.193 0.692 0.193 0.481 0 0.903-0.255 1.137-0.637l0.003-0.006zM25.324 22.921c0.429-2.252 0.674-4.841 0.674-7.489 0-0.269-0.003-0.537-0.008-0.805l0.001 0.040c-0.002-5.153-4.18-9.33-9.333-9.33-2.757 0-5.235 1.195-6.943 3.096l-0.008 0.009c-0.216 0.236-0.348 0.552-0.348 0.899 0 0.736 0.597 1.333 1.333 1.333 0.398 0 0.756-0.175 1-0.452l0.001-0.001c1.226-1.362 2.995-2.215 4.963-2.215 3.68 0 6.663 2.981 6.667 6.66v0c0.005 0.223 0.007 0.486 0.007 0.75 0 2.473-0.227 4.893-0.661 7.24l0.037-0.244c-0.010 0.062-0.016 0.133-0.016 0.206 0 0.736 0.597 1.333 1.333 1.333 0.629 0 1.157-0.436 1.297-1.022l0.002-0.009zM9.991 14.668c0-0.373 0.031-0.745 0.093-1.112 0.019-0.084 0.030-0.181 0.030-0.28 0-0.736-0.597-1.333-1.333-1.333-0.678 0-1.238 0.506-1.322 1.161l-0.001 0.007c-0.084 0.467-0.133 1.006-0.133 1.555v0.001c0 6.193-1.795 9.333-5.333 9.333-0.736 0-1.333 0.597-1.333 1.333s0.597 1.333 1.333 1.333v0c5.16 0 8-4.267 8-12zM28.257 31.219c1.951-4.53 3.085-9.803 3.085-15.341 0-0.426-0.007-0.85-0.020-1.273l0.002 0.062c0-0.012 0-0.026 0-0.040 0-2.312-0.541-4.497-1.505-6.436l0.038 0.084c-0.232-0.415-0.669-0.692-1.17-0.692-0.738 0-1.336 0.598-1.336 1.336 0 0.189 0.039 0.368 0.11 0.531l-0.003-0.009c0.757 1.518 1.2 3.308 1.2 5.2 0 0.009 0 0.019-0 0.028v-0.001c0.012 0.351 0.019 0.764 0.019 1.178 0 5.149-1.046 10.053-2.936 14.513l0.092-0.244c-0.068 0.155-0.108 0.335-0.108 0.525 0 0.736 0.597 1.333 1.333 1.333 0.526 0 0.98-0.304 1.197-0.746l0.003-0.008zM4.657 18.667v-4c0.008-6.624 5.376-11.992 11.999-12h0.001c0.012-0 0.026-0 0.040-0 2.702 0 5.194 0.902 7.19 2.421l-0.029-0.021c0.22 0.166 0.498 0.267 0.8 0.267 0.736 0 1.333-0.597 1.333-1.333 0-0.435-0.208-0.821-0.53-1.064l-0.003-0.002c-2.405-1.831-5.452-2.933-8.756-2.933-0.016 0-0.031 0-0.047 0h0.002c-8.096 0.010-14.657 6.57-14.667 14.666v4.001c0 0.736 0.597 1.333 1.333 1.333s1.333-0.597 1.333-1.333v0z"></path>
</symbol>
<symbol id="icon-camera" viewBox="0 0 32 32">
<path d="M30.533 11.94c-0.348-0.18-0.761-0.286-1.198-0.286-0.6 0-1.154 0.2-1.598 0.536l0.007-0.005-2.444 1.815c-0.354-3.382-3.188-5.996-6.633-6h-0.114l-5.496-5.495c-0.719-0.724-1.715-1.172-2.816-1.172-0.004 0-0.009 0-0.013 0h-8.895c-0.736 0-1.333 0.597-1.333 1.333s0.597 1.333 1.333 1.333v0h8.896c0.353 0 0.693 0.141 0.943 0.391l3.609 3.609h-8.115c-3.68 0.005-6.662 2.987-6.667 6.666v10.667c0.005 3.68 2.987 6.662 6.666 6.667h12c3.445-0.004 6.279-2.618 6.631-5.971l0.002-0.029 2.44 1.819c0.44 0.333 0.997 0.533 1.6 0.533 1.473 0 2.667-1.194 2.667-2.667v0-11.361c0-0.003 0-0.006 0-0.009 0-1.035-0.593-1.931-1.458-2.368l-0.015-0.007zM22.667 25.333c0 2.209-1.791 4-4 4v0h-12c-2.209 0-4-1.791-4-4v0-10.667c0-2.209 1.791-4 4-4v0h12c2.209 0 4 1.791 4 4v0 10.667zM29.333 25.676l-4-2.981v-5.389l4-2.981v11.352z"></path>
</symbol>
<symbol id="icon-school" viewBox="0 0 32 32">
<path d="M25.333 8h-6.239c-0.502-0.362-1.090-0.643-1.725-0.808l-0.037-0.008v-0.517l4.707-2.203c0.381-0.239 0.631-0.657 0.631-1.133s-0.25-0.894-0.625-1.13l-0.006-0.003-4.267-2c-0.271-0.13-0.589-0.205-0.924-0.205-1.205 0-2.183 0.977-2.183 2.183 0 0.002 0 0.005 0 0.007v-0 5.003c-0.632 0.16-1.229 0.437-1.76 0.816h-6.24c-3.68 0.005-6.662 2.987-6.667 6.666v13.334c0 2.209 1.791 4 4 4v0h24c2.209 0 4-1.791 4-4v0-13.333c-0.005-3.68-2.987-6.662-6.666-6.667h-0zM29.088 13.333h-2.879c-1.104-0.003-2.103-0.45-2.828-1.172l-1.496-1.495h3.448c1.725 0.007 3.191 1.105 3.746 2.639l0.009 0.028zM6.667 10.667h3.448l-1.496 1.495c-0.725 0.722-1.724 1.169-2.827 1.172h-2.879c0.564-1.562 2.030-2.659 3.754-2.667h0.001zM17.333 29.333h-2.667v-4c0-0.736 0.597-1.333 1.333-1.333s1.333 0.597 1.333 1.333v0 4zM28 29.333h-8v-4c0-2.209-1.791-4-4-4s-4 1.791-4 4v0 4h-8c-0.736 0-1.333-0.597-1.333-1.333v0-12h3.124c0.005 0 0.011 0 0.016 0 1.836 0 3.497-0.747 4.697-1.953l3.611-3.61c0.483-0.482 1.149-0.781 1.885-0.781s1.403 0.298 1.885 0.781l3.611 3.609c1.2 1.207 2.861 1.953 4.697 1.953 0.006 0 0.012 0 0.018-0h3.123v12c0 0.736-0.597 1.333-1.333 1.333v0zM9.333 20c0 0.736-0.597 1.333-1.333 1.333v0h-1.333c-0.736 0-1.333-0.597-1.333-1.333s0.597-1.333 1.333-1.333v0h1.333c0.736 0 1.333 0.597 1.333 1.333v0zM9.333 25.333c0 0.736-0.597 1.333-1.333 1.333v0h-1.333c-0.736 0-1.333-0.597-1.333-1.333s0.597-1.333 1.333-1.333v0h1.333c0.736 0 1.333 0.597 1.333 1.333v0zM26.667 20c0 0.736-0.597 1.333-1.333 1.333v0h-1.333c-0.736 0-1.333-0.597-1.333-1.333s0.597-1.333 1.333-1.333v0h1.333c0.736 0 1.333 0.597 1.333 1.333v0zM26.667 25.333c0 0.736-0.597 1.333-1.333 1.333v0h-1.333c-0.736 0-1.333-0.597-1.333-1.333s0.597-1.333 1.333-1.333v0h1.333c0.736 0 1.333 0.597 1.333 1.333v0zM18.667 16c0 1.473-1.194 2.667-2.667 2.667s-2.667-1.194-2.667-2.667v0c0-1.473 1.194-2.667 2.667-2.667s2.667 1.194 2.667 2.667v0z"></path>
</symbol>
</defs>
</svg>
